<svg xmlns="http://www.w3.org/2000/svg" viewBox="0 0 688 200" width="688" height="200" fill="none" stroke="#303030" stroke-width="1" stroke-linejoin="round" stroke-linecap="round" aria-hidden="true"><path d="M199.4 0L200 0.4L204.6 5L205 5.5L208 10L210 13.9L210.4 15L211.7 20L211.5 25L210 28.2L208.9 30L205 33.8L203.2 35L200 36.7L195 38.3L190 39.3L185 39.1L180 37.8L175 35.8L173.4 35L170 32.9L165 30.1L164.7 30L160 27L155 25.1L154.6 25L150 21.2L149.2 20L149.1 15L150 13.2L155 11L158.3 10L160 9.8L165 7.8L169.1 5L170 4.5L175 0.9L176.2 0"/><path d="M133.3 0L132.8 5L132.6 10L132.8 15L133.3 20L134.5 25L135 26.2L137.2 30L140 32.7L144 35L145 35.4L150 36.9L155 38.1L160 39.3L162.1 40L165 40.9L170 42.8L175 44.9L175.2 45L180 46.8L185 47.9L190 48.1L195 47.4L200 46L202 45L205 43.5L209.9 40L210 39.9L215 35.1L215.1 35L219.1 30L220 28.1L221.4 25L221.9 20L221.3 15L220.1 10L220 9.6L218.3 5L216.1 0"/><path d="M120 0L120 0.1L121.4 5L122.2 10L122.8 15L123.5 20L124.3 25L125 29.5L125.1 30L126.4 35L129.9 40L130 40.1L135 42.3L140 43.5L145 44.5L147.2 45L150 45.6L155 46.8L160 48L165 49.6L166.1 50L170 51.6L175 53.9L177.8 55L180 55.9L185 57.2L190 57.5L195 56.8L200 55.4L200.8 55L205 52.8L208.2 50L210 48.6L213.5 45L215 43.5L218.3 40L220 38.3L223 35L225 32.4L226.8 30L229.2 25L230 20L229.7 15L229 10L228 5L226.8 0"/><path d="M107.8 0L109.6 5L110 6.7L110.8 10L111.6 15L112.4 20L113 25L113.1 30L112.6 35L112.3 40L112.9 45L115 49.3L115.5 50L120 53.3L125 54.5L130 54.3L135 53.7L140 53.3L145 53.6L150 54.6L151.7 55L155 55.9L160 57.3L165 59L167.2 60L170 61.2L175 63.4L178.9 65L180 65.5L185 66.8L190 67.3L195 66.8L200 65.7L201.4 65L205 63.2L208.7 60L210 58.8L212.9 55L215 52.4L216.7 50L220 46L220.8 45L225 40.4L225.4 40L229.9 35L230 34.9L233.7 30L235 27.4L236.2 25L237.1 20L237.1 15L236.8 10L236.3 5L235.6 0"/><path d="M97.1 0L98.1 5L98.9 10L99.5 15L100 18.7L100.2 20L100.6 25L100.4 30L100 33.2L99.7 35L99.1 40L99.4 45L100 46.8L101.1 50L104.6 55L105 55.4L110 59.8L110.2 60L115 63.1L120 64.9L120.6 65L125 65.4L128.4 65L130 64.8L135 63.9L140 63.2L145 63.3L150 64.1L153.6 65L155 65.3L160 66.4L165 67.9L170 70L170.1 70L175 72.2L180 74.6L181.1 75L185 76.5L190 77.4L195 77.2L200 76.3L203.5 75L205 74.4L210 70.2L210.2 70L214 65L215 63.7L217.3 60L220 55.5L220.3 55L223.4 50L225 48L227.4 45L230 42.1L231.9 40L235 36.6L236.5 35L240 30.3L240.2 30L242.6 25L243.7 20L243.9 15L243.9 10L243.7 5L243.3 0M478.8 0L475 1.2L470 5L465 6L464.7 5L465 4.7L469.9 0M470 5L470 5M499.7 30L500 29.8L505 28.1L510 28.2L515 29.4L516.7 30L520 31.2L525 33.4L529.3 35L530 35.4L535 37.6L540 39.6L545 39.8L550 37.8L555 35.2L555.6 35L560 34L563.5 35L565 35.5L568.2 40L570 44.8L570.1 45L570 46.8L569.8 50L567.1 55L565 57.1L560 57.9L555 56L553 55L550 52.7L545 50.2L542.5 50L540 49.6L539.4 50L535 51.1L530 52.8L526.3 55L525 55.5L520 58.6L518 60L515 61.8L510 64.1L505 64.8L500 63.1L496 60L495 59.1L491.4 55L490 52.1L488.9 50L488.6 45L490 41.4L490.5 40L494 35L495 33.8L499.7 30M303.8 135L305 134.5L310 134.4L311.3 135L315 137.6L316.7 140L318.6 145L318.6 150L315 153.7L312.8 155L310 155.9L305 156.6L300 155.9L298.6 155L296.8 150L297.3 145L298.8 140L300 138.2L303.8 135"/><path d="M87.6 0L87.2 5L86.6 10L86.2 15L85.9 20L85.6 25L85 29.7L85 30L84.2 35L83.8 40L84.4 45L85 46.6L86.3 50L89.8 55L90 55.2L94.8 60L95 60.2L100 64.4L100.8 65L105 68L108.1 70L110 71.1L115 73.7L120 74.9L125 74.9L130 74L135 72.8L140 72L145 71.8L150 72.3L155 73.2L160 74.1L162.9 75L165 75.6L170 77.7L174.3 80L175 80.4L180 83.3L183.6 85L185 85.7L190 86.9L195 86.9L200 86.5L205 85.7L207.1 85L210 83.7L214.2 80L215 79.1L217.1 75L219.4 70L220 68.8L221.7 65L224.3 60L225 58.7L226.8 55L229.9 50L230 49.8L233.8 45L235 43.7L238.4 40L240 38.2L242.8 35L245 32L246.4 30L248.5 25L249.5 20L249.9 15L250 12.3L250.1 10L250.1 5L250 3.8L249.8 0M448.5 0L445.7 5L445.3 10L447.3 15L450 19.2L450.6 20L454.2 25L455 26.5L457.8 30L460 34.2L460.7 35L463.1 40L465 44.5L465.2 45L468.6 50L470 51.2L473.8 55L475 55.8L480 59.8L480.2 60L485 64L486 65L490 68.6L491.5 70L495 73.2L497.4 75L500 76.9L505 78.5L510 78.1L515 76L516.7 75L520 73.1L525 70.5L526.4 70L530 68.7L535 67.9L540 67.4L545 67.9L550 69.5L551.2 70L555 71.3L560 72.2L565 71.7L569 70L570 69.5L574.3 65L575 63.9L576.9 60L578.8 55L579.8 50L579.9 45L579.3 40L578.2 35L576.9 30L575.7 25L575 20.6L574.8 20L573.5 15L570.7 10L570 9.1L565 8.9L563.6 10L560 12L556 15L555 15.6L550 18.2L545 19.6L540 19.4L535 18.2L530 17L525 15.4L524 15L520 12.7L516.4 10L515.2 5L520 1L522 0M284.9 125L285 125L290 122.6L295 121L300 120.3L305 120.3L310 121L315 122.5L320 124.9L320.2 125L325 128.6L326.7 130L330 134.1L330.7 135L333.1 140L334.4 145L334.6 150L331.5 155L330 156L325 159L323.3 160L320 161.3L315 163.2L310.2 165L310 165.1L305 167.3L300.4 170L300 170.3L295 173.9L292.8 175L290 176.3L285 175.6L284.1 175L280 171L279.3 170L277.1 165L276.1 160L275.9 155L276.1 150L276.3 145L276.5 140L277.4 135L279.6 130L280 129.5L284.9 125"/><path d="M79.2 0L77.7 5L76.1 10L75 13.9L74.7 15L73.4 20L71.9 25L70.1 30L70 30.4L68.1 35L66.3 40L65.4 45L66.4 50L69.9 55L70 55.1L75 59.5L75.5 60L80 63.5L81.8 65L85 67.6L88.2 70L90 71.3L95 74.4L95.9 75L100 77.2L105 79.7L105.5 80L110 82.4L115 84.5L117.9 85L120 85.4L122.3 85L125 84.6L130 83L135 81.3L140 80L140 80L145 79.5L150 79.7L152.2 80L155 80.3L160 81.1L165 82.6L170 84.9L170.1 85L175 87.9L178.3 90L180 91.1L185 93.5L190 94.8L194.9 95L195 95L195.3 95L200 94.9L205 94.7L210 94.2L215 93.3L220 91.6L222.6 90L225 86.1L225.4 85L225.9 80L226.3 75L227.3 70L228.9 65L230 62.7L231.2 60L233.6 55L235 52.6L236.5 50L240 45.5L240.4 45L244.9 40L245 39.9L249.1 35L250 33.7L252.2 30L254 25L254.9 20L255 18.4L255.3 15L255.6 10L255.6 5L255.3 0M436.2 0L435.5 5L435.9 10L437.3 15L439.1 20L440 22.5L441.1 25L442.7 30L443.7 35L444.3 40L444.9 45L445 45.5L446.2 50L448.5 55L450 57L452.6 60L455 61.7L460 64.6L461 65L465 66.2L470 67.8L474.7 70L475 70.1L480 73L482.6 75L485 77L488.3 80L490 81.6L493.9 85L495 86L500 89.6L501 90L505 91.6L510 91.6L514.9 90L515 90L520 87.4L525 85L530 83.4L535 82.8L540 82.5L545 82.5L550 82.6L555 82.7L560 82.2L565 81.1L567.5 80L570 79L575 75.7L575.8 75L580 70.8L580.7 70L583.7 65L585 61.8L585.6 60L586.9 55L587.7 50L588.1 45L588.1 40L587.9 35L588 30L588.7 25L590 21.5L591 20L595 16.1L597.1 15L600 13.7L605 11.7L608.1 10L610 8.5L613 5L614.9 0M525 85L525 85M270.2 115L275 113.3L280 112L285 111.1L290 110.5L295 110.2L300 110.3L305 110.7L310 111.4L315 112.5L320 114.1L322.2 115L325 116.2L330 119.1L331.2 120L335 123.1L337.2 125L340 127.9L342.2 130L345 133.3L346.7 135L350 139.8L350.2 140L352.9 145L354.5 150L355 153.2L355.5 155L355 158.9L354.7 160L350 161.2L345 161.6L340 162.3L335 163.3L330 164.7L329.1 165L325 166.3L320 168L315 169.7L314.3 170L310 172.2L305.9 175L305 175.9L301 180L300 181.2L296.3 185L295 186.3L290 188.9L285 188.6L280 186L278.5 185L275 182.4L272.9 180L270 176.2L269.3 175L267.1 170L265.4 165L265 163.4L264.2 160L263.5 155L263 150L262.7 145L262.4 140L262.2 135L262.1 130L262.6 125L264.4 120L265 119.2L270 115.1L270.2 115"/><path d="M351.7 200L350 197.7L348.7 195L347.5 190L346.7 185L345.5 180L345 179.1L342.4 175L340 173.1L335 171.6L330 171.8L325 173.1L320 174.6L319 175L315 176.9L310.6 180L310 180.6L306.4 185L305 186.9L302.8 190L300 193.5L298.4 195L295 197.7L290 199.2L285 198.6L280 196.6L277 195L275 193.8L271 190L270 188.9L267.3 185L265 181.4L264.2 180L261.8 175L260 171L259.6 170L257.6 165L255.9 160L255 156.8L254.5 155L253.6 150L253.2 145L252.6 140L251.9 135L250.8 130L250 126.7L249.5 125L248.1 120L246.5 115L245 110.7L244.7 110L241 105L240 104.5L235 103.4L230 103L225 102.7L220 102.5L215 102.4L210 102.2L205 102.1L200 102.1L195 102L190 101.7L185 100.5L183.9 100L180 98.2L175 95.1L174.9 95L170 91.9L166.2 90L165 89.4L160 87.9L155 87.3L150 87.1L145 87.2L140 88.3L135.8 90L135 90.4L130 93.4L127.3 95L125 96.7L120 98.9L115 98.9L110 96.8L106.5 95L105 94.3L100 92.7L95 92.1L90 92.5L85 92.7L80 91.7L76.7 90L75 88.9L70.6 85L70 84.4L65.5 80L65 79.5L60.7 75L60 74.2L57.1 70L55 66.9L54 65L51.3 60L50 57.5L48.9 55L47 50L45.2 45L45 44.2L43.5 40L42.9 35L45 32.8L49.3 30L50 29.8L55 27.3L57.6 25L60 22.9L62 20L64.8 15L65 14.7L67.1 10L69.3 5L70 3.4L71.4 0M260.6 0L261 5L261 10L260.6 15L260.1 20L260 20.6L259.3 25L257.9 30L255.6 35L255 36L252 40L250 42.3L247.5 45L245 48L243.5 50L240.6 55L240 56.4L238.5 60L236.6 65L235.4 70L235.5 75L236.9 80L239.4 85L240 86.3L242.6 90L245 93.9L246.1 95L250 99.3L251.9 100L255 100.8L260 101.4L265 101.6L270 101.6L275 101.6L280 101.5L285 101.4L290 101.3L295 101.4L300 101.5L305 101.8L310 102.1L315 102.5L320 103.1L325 103.9L329.1 105L330 105.3L335 108L337.3 110L340 112.3L342.9 115L345 116.8L349.2 120L350 120.6L355 123.2L360 124.7L361.7 125L365 125.6L370 126.6L375 129.1L376 130L380 135L380 135.1L381.6 140L382.5 145L383.1 150L383.8 155L384.8 160L385 160.7L386 165L387.2 170L388.2 175L388.7 180L388.7 185L388.5 190L386.6 195L385 196.4L380 200M426 0L427.4 5L428.5 10L429.6 15L430 16.3L431 20L432.3 25L432.9 30L433 35L432.5 40L431.9 45L431.5 50L432 55L433.4 60L435 62.9L436.4 65L440 67.3L445 69.7L445.7 70L450 71L455 72L460 73.1L465 74.4L466.6 75L470 76.2L475 78.9L476.4 80L480 83L482.1 85L485 88.2L486.8 90L490 93.3L492 95L495 97.7L497.9 100L500 101.7L505 104.3L510 104.9L515 103.8L520 101.6L523.7 100L525 99.5L530 98.2L535 97.8L540 97.7L545 97.4L550 96.7L555 95.4L555.9 95L560 93.6L565 91.2L566.8 90L570 88.3L574.8 85L575 84.8L580 81L581.1 80L585 76.2L586 75L589.4 70L590 68.7L591.5 65L592.8 60L593.8 55L594.7 50L595 48.2L595.6 45L596.8 40L599 35L600 33.4L603.6 30L605 29L610 26.1L612.1 25L615 23.2L619.6 20L620 19.6L625 15.3L625.4 15L630 10.2L630.2 10L633.5 5L635 1.5L635.7 0M622.7 200L620 197L618.1 195L618.1 190L620 185.6L620.2 185L624 180L625 179.4L630 175.5L630.4 175L635 171.3L636.1 170L640 165.1L640.1 165L642.6 160L644 155L644.6 150L644.8 145L644.9 140L645 138.3L645.3 135L646.4 130L648.6 125L650 122.8L652.8 120L655 118.3L660 116.2L665 115.2L667.3 115L670 114.7L673 115L675 115.2L680 117.3L683.4 120L685 122.1L686.8 125L688.2 130L688.9 135L689.2 140L689.5 145L690 149.3M653 200L655 198.6L659.5 195L660 194.5L664.6 190L665 189.6L670 185.8L672.2 185L675 184L680 183.7L685 184.4L687.7 185L690 185.4"/><path d="M63.3 0L60.3 5L60 5.4L55.6 10L55 10.7L50 13.4L45 14.7L42.7 15L40 15.4L35 16.3L30 17.6L25 19.3L22 20L20 20.6L15 21.4L10 21.3L5 20L0 18.1M266.2 0L266.7 5L266.8 10L266.3 15L265.7 20L265 24.6L264.9 25L264 30L262.7 35L260.4 40L260 40.7L257 45L255 47.3L252.7 50L250 53.5L249.1 55L246.9 60L245 64.6L244.9 65L244.3 70L245 72.9L245.7 75L249.6 80L250 80.4L255 83.6L257.9 85L260 86L265 87.8L270 89.3L273 90L275 90.4L280 91.3L285 91.9L290 92.5L295 93L300 93.4L305 93.6L310 93.7L315 93.6L320 93.3L325 92.9L330 92.5L335 92.5L340 93L345 94.2L347.4 95L350 96.6L355 99.5L356.2 100L360 102.3L365 103.5L370 104.7L370.4 105L375 107.7L376.7 110L380 113L381.3 115L385 119.8L385.1 120L387.9 125L390 129.7L390.1 130L391.6 135L392.5 140L393 145L393.4 150L394.2 155L395 157.9L395.6 160L397.5 165L399.6 170L400 171.1L401.7 175L403.3 180L404.4 185L405 188.2L405.4 190L405.2 195L405 195.3L401.8 200M417 0L419.6 5L420 6.1L421.3 10L422.4 15L423.4 20L424.2 25L424.1 30L423.1 35L421 40L420 42L417.7 45L415 48.9L413.7 50L410 54.5L409.4 55L405.3 60L405 60.4L403.1 65L405 70L405.1 70L410 70.1L415 70.6L420 71.7L425 72.9L430 74.1L434.1 75L435 75.1L440 75.9L445 76.6L450 77.3L455 78L460 78.9L463.7 80L465 80.4L470 82.8L473 85L475 86.8L478.1 90L480 92.5L482.1 95L485 98.9L486.1 100L490 104.4L490.6 105L495 109.2L496 110L500 113.2L503.4 115L505 115.8L510 116.9L515 116.7L520 115.5L521.7 115L525 114L530 113L535 112.9L540 113.1L545 113.6L550 114.5L551.7 115L555 116.5L558.2 120L559.3 125L559.7 130L560 132.9L560.2 135L561.1 140L562.1 145L562.8 150L563 155L562.8 160L562.3 165L561.9 170L562.4 175L564 180L565 182.4L566.1 185L568 190L570 194.9L570 195L573.3 200M690 95.9L685.9 95L685 94.7L680 93.7L675 94L672.2 95L670 95.5L665 97.5L660 99.5L659.2 100L655 102L650.7 105L650 105.5L645 110L645 110L640.5 115L640 115.8L637.2 120L635.1 125L635 125.7L633.9 130L633.4 135L633.3 140L633.4 145L633.1 150L631.6 155L630 157.4L627.2 160L625 161.4L620 163.4L615 164.8L610 164.6L605 161.8L603.4 160L600.8 155L600 150.2L600 150L600 149.4L600.2 145L600.8 140L600.8 135L600 130.4L599.9 130L597.6 125L595 122L592.5 120L590 118.2L585 115.8L582.6 115L580 113.5L575.4 110L575.5 105L577.1 100L579.4 95L580 94.3L583 90L585 87.9L587.3 85L590 81.8L591.3 80L594.5 75L595 74.1L596.9 70L598.6 65L599.7 60L600 58.2L600.6 55L601.8 50L603.7 45L605 42.6L607.2 40L610 37.5L614.2 35L615 34.5L620 32.1L624.4 30L625 29.7L630 27L633.4 25L635 23.7L639.6 20L640 19.6L645 15L645 15L650 10.7L651.2 10L655 7.5L660 5.5L662.2 5L665 4.3L670 2.7L673.5 0M5 20L5 20M0 37.5L5 38.9L7.3 40L10 41.4L15 44.7L15.6 45L20 48.1L23.3 50L25 51.3L29.2 55L30 55.9L32.3 60L34.8 65L35 65.8L35.6 70L35.4 75L35.4 80L39.2 85L40 85.3L45 87.8L49.5 90L50 90.2L55 92.1L60 94.6L60.6 95L65 97.5L68.3 100L70 101.4L74 105L75 106.1L79.4 110L80 110.6L85 114.1L87.7 115L90 115.9L95 116.2L100 116.2L105 116.6L110 117.6L115 118.3L120 117L122.6 115L125 113.1L127.6 110L130 107.4L132 105L135 101.9L137.2 100L140 98.1L145 95.9L150 95L155 94.8L159.3 95L160 95L165 96.5L170 99L171.6 100L175 102.1L179.9 105L180 105.1L185 107.4L190 108.7L195 109.1L200 109.3L205 109.6L209.1 110L210 110.1L215 110.9L220 112.1L225 114L227 115L230 116.8L233.7 120L235 121.4L237.7 125L240 129L240.5 130L242.4 135L243.6 140L244.4 145L245 149.6L245.1 150L246.2 155L248 160L250 164.1L250.4 165L252.8 170L255 174.3L255.3 175L257.8 180L260 184.5L260.3 185L263 190L265 193.4L266.2 195L270 199.3L270.9 200M150 95L150 95M306.5 200L309.9 195L310 194.9L314.2 190L315 189.1L320 185.5L320.9 185L325 183.3L330 182L335 184.6L335.2 185L337 190L338.4 195L339.8 200M670.2 200L675 197.8L680 196.8L685 196.8L690 197.3"/><path d="M0 4.6L0.8 5L5 7.1L10 8.6L15 9L20 8.6L25 7.4L30 5.7L32.6 5L35 4.2L40 3.1L45 2L50 0.2L50.3 0M272.8 0L273.5 5L273.7 10L273.2 15L272.4 20L271.7 25L271.1 30L270.7 35L270.4 40L270.2 45L270 48.4L269.9 50L269.4 55L268.5 60L267.8 65L270 69.9L270 70L274.9 75L275 75L280 78.4L282.7 80L285 80.9L290 83L295 84.7L296 85L300 86L305 86.7L310 87.1L315 87L320 86.5L325 85.8L329.5 85L330 84.9L335 84.2L340 83.6L345 83.2L350 82.9L355 82.7L360 82.4L365 82.1L370 81.7L375 80.5L376.2 80L380 77.9L382.7 75L385 70.8L385.3 70L387.1 65L388.7 60L390 55.4L390.1 55L392 50L394.7 45L395 44.6L400 40.5L400.8 40L405 37.5L408.7 35L410 33.8L413 30L414.6 25L414.7 20L414.2 15L413.2 10L411.3 5L410 2.7L408.5 0M625.3 40L630 38.4L635 37.2L640 36.5L645 36.4L650 38.4L651.4 40L652.8 45L653 50L652.8 55L652.4 60L652.1 65L652.1 70L652.2 75L651.9 80L650.8 85L650 86.4L648.4 90L645 94.5L644.7 95L640 99.8L639.8 100L635 104L633.3 105L630 107.2L625 109L620 109.7L615 109.9L610 109.2L605 107.1L602.2 105L600 103L597.7 100L595.9 95L596.5 90L598.4 85L600 81.8L600.9 80L603.2 75L605 70.2L605.1 70L606.8 65L607.9 60L609 55L610 52L611 50L615 45.4L615.6 45L620 42.5L625 40.1L625.3 40M0 54.2L0.6 55L2.6 60L4.3 65L5 67.7L5.6 70L6.6 75L7.9 80L9.7 85L10 85.5L13.1 90L15 91.8L20 94.7L21.3 95L25 95.5L30 96L35 96.5L40 97.3L45 98.3L50 99.8L50.5 100L55 101.8L60 104.6L60.6 105L65 108.6L66.4 110L70 114.2L70.7 115L74.2 120L75 121.3L77.7 125L80 128.9L81 130L84.6 135L85 135.6L90 139.6L93.2 140L95 140.3L96.1 140L100 139.3L105 138.5L110 138.3L115 138L120 135.9L121 135L125 131.6L126.2 130L130 125.2L130.1 125L133.2 120L135 117.3L136.5 115L140 110.5L140.5 110L145 106.4L148.3 105L150 104.4L155 103.3L160 103L165 104.1L166.9 105L170 106.4L175 109.5L175.9 110L180 112.5L185 114.7L186 115L190 116.1L195 116.5L200 116.9L205 117.5L210 118.4L215 119.8L215.5 120L220 122L224.6 125L225 125.3L229.5 130L230 130.7L232.4 135L234.3 140L235 143.3L235.4 145L236.2 150L237.6 155L239.7 160L240 160.6L242.4 165L245 169L245.6 170L248.6 175L250 177.3L251.4 180L254 185L255 187L256.5 190L259 195L260 197L261.9 200M418.8 200L419.5 195L418.7 190L417.4 185L416.1 180L415 176.8L414.3 175L411.9 170L410 166.3L409.3 165L406.8 160L405 155.2L404.9 155L403.9 150L403.5 145L403.2 140L402.6 135L401.6 130L400.5 125L400 122.8L399.3 120L398.4 115L398.1 110L398.5 105L399.4 100L400 98.4L401.5 95L405 91.7L407.3 90L410 88.7L415 86.5L418.5 85L420 84.5L425 83.1L430 82.3L435 81.9L440 81.9L445 82.2L450 82.6L455 83.1L460 84.1L462.5 85L465 86L470 89.4L470.6 90L474.9 95L475 95.1L478.3 100L480 102.7L481.7 105L485 109.6L485.4 110L490 114.7L490.4 115L495 119L496.3 120L500 123L503.2 125L505 126.3L510 128.4L515 129.1L520 128.9L525 128.2L530 127.7L535 127.9L540 128.6L543 130L545 131.3L547.7 135L550 140L550 140L551.2 145L551.9 150L551.6 155L550.3 160L550 160.9L547.5 165L545 168.8L543.4 170L540 174.5L539.1 175L540 176.4L541 180L545 183.1L546.4 185L550 189.3L550.4 190L552.6 195L554.5 200"/><path d="M281.6 0L282.7 5L282.9 10L282.3 15L281.3 20L280.6 25L280.4 30L280.8 35L281.6 40L282.7 45L283.9 50L285 54.2L285.2 55L286.3 60L287.8 65L290 69.1L290.5 70L294.9 75L295 75.1L300 78.2L304.4 80L305 80.2L310 81L315 81.2L320 80.6L323.3 80L325 79.7L330 78.5L335 77.2L340 75.8L343.1 75L345 74.3L350 72.7L355 71.3L360 70.3L362.2 70L365 69.5L370 68.3L374.8 65L375 64.8L377.9 60L380 55.2L380.1 55L381.2 50L381.7 45L382 40L382.7 35L385 32.2L389.3 30L390 29.8L395 27.8L399.2 25L400 24.2L402.1 20L403.1 15L403.1 10L401.7 5L400 1.3L399.3 0M624.3 70L625 68.8L630 66.5L631.5 70L633.4 75L634 80L632.7 85L630 88.6L627 90L625 90.5L622 90L620 89.2L616.5 85L617.6 80L620 75.6L620.4 75L624.3 70M0 85.8L3.2 90L5 92L7.6 95L10 97.2L13.7 100L15 100.8L20 102.7L25 103.3L30 103.6L35 104L40 104.8L40.9 105L45 105.9L50 107.6L54.6 110L55 110.2L60 114.2L60.9 115L65 120L65 120L68.1 125L70 129.1L70.4 130L72.3 135L73.5 140L74.3 145L75 149.9L75 150L76.3 155L78.4 160L80 162.8L82.4 165L85 166.9L90 168L95 167.6L100 166.7L105 165.9L110 165.5L115 165.2L117.5 165L120 164.8L125 163.5L128.1 160L129.6 155L130 153.4L130.7 150L132.2 145L134.5 140L135 139.1L137 135L139.6 130L140 129.3L142.5 125L145 121.2L146 120L150 116.3L152 115L155 113.5L160 112.2L165 112.8L170 114.9L170.2 115L175 117.9L178.8 120L180 120.7L185 123L190 124.4L195 125L195.4 125L200 125.6L205 126.6L210 128.1L214.1 130L215 130.6L220 134.8L220.2 135L223.3 140L225 144.7L225.1 145L226.3 150L227.8 155L230 159.6L230.2 160L233.1 165L235 167.5L236.7 170L240 174.4L240.4 175L243.9 180L245 181.6L246.9 185L249.7 190L250 190.6L252 195L254.1 200M428.9 200L428.3 195L427.2 190L425.9 185L425 181.5L424.6 180L423.1 175L421.4 170L420 166.3L419.4 165L417.5 160L416 155L415.2 150L415 145.1L415 145L414.9 140L414.7 135L414.3 130L413.9 125L413.7 120L414.1 115L415 111.2L415.3 110L417.1 105L419.8 100L420 99.7L423.4 95L425 93.7L430 90.4L431 90L435 88.8L440 88L445 87.8L450 88.1L455 88.5L460 89.6L460.9 90L465 92.4L467.9 95L470 97.6L471.7 100L474.8 105L475 105.3L478 110L480 113L481.6 115L485 119.1L486 120L490 123.9L491.2 125L495 129L496.1 130L500 135L500 135L503.3 140L505 144.7L505.2 145L506.8 150L506.4 155L505 158.3L504.5 160L502.5 165L500.4 170L500 171.3L499 175L498.5 180L498.6 185L498.7 190L500 195L500 195.1L504.2 200"/><path d="M292.3 0L292.5 5L292.3 10L291.7 15L291.1 20L290.6 25L290.7 30L291.1 35L292 40L293.1 45L294.3 50L295 52.7L295.6 55L296.9 60L298.6 65L300 67.3L302 70L305 72.3L310 74.5L314.3 75L315 75.1L315.5 75L320 74.4L325 72.9L330 71.2L333.1 70L335 68.9L340 65.7L341.2 65L345 61.4L346.7 60L350 56.7L352.1 55L355 50.5L355.5 50L355 46L354.9 45L353.2 40L351.9 35L351.6 30L352.7 25L355 20.1L355.1 20L360 15.2L360.4 15L365 12.8L370 10.6L371.8 10L375 8.9L380 7.3L384.1 5L385 3.9L386.4 0M439 200L437.2 195L435.2 190L435 189.4L433.6 185L432.1 180L430.7 175L430 172.8L429.1 170L427.6 165L426.1 160L425 155L425 155L424.5 150L424.4 145L424.6 140L424.6 135L424.6 130L424.6 125L424.9 120L425 119.4L425.7 115L427.3 110L429.8 105L430 104.6L433.6 100L435 98.7L440 95.9L443.8 95L445 94.8L450 94.7L454.6 95L455 95L460 96.9L463.8 100L465 101.1L467.8 105L470 108.1L471.2 110L474.3 115L475 116L477.8 120L480 123L481.7 125L485 129.1L485.8 130L489.4 135L490 136.4L491.7 140L493 145L493.7 150L493.5 155L492.4 160L490.5 165L490 166.1L488.3 170L486.3 175L485 178.9L484.6 180L483.4 185L481.8 190L480.5 195L480.5 200M0 96.1L4.2 100L5 100.7L10 105L10 105L15 107.9L20 109.3L25 109.8L30 110L30.3 110L35 110.4L40 111.1L45 112.5L50 114.8L50.3 115L55 118.6L56.4 120L60 124.9L60.1 125L62.6 130L64.3 135L65 138.7L65.3 140L65.9 145L66.4 150L67.2 155L68.2 160L69.7 165L70 165.8L71.8 170L74.2 175L75 176.5L78.1 180L80 182L85 183.5L90 183.1L95 181.8L100 180.5L102.6 180L105 179.6L110 179.2L115 179.1L120 179.9L120.2 180L125 182.2L129.3 185L130 185.5L135 189L137.2 190L140 191.5L145 191.9L149.4 190L150 189.7L155 185.8L155.9 185L159.9 180L160 177L160.1 175L160 174.9L156.8 170L155 168.3L151.9 165L150 163L147.2 160L145 156.2L144.4 155L143.9 150L145 145.9L145.3 145L147.8 140L150 136.3L150.9 135L154.5 130L155 129.4L160 125.3L161.3 125L165 124.4L166.9 125L170 125.9L175 128.6L177.5 130L180 131.6L185 134.2L187.4 135L190 136.2L195 137.6L200 139L202.2 140L205 141.9L208.1 145L210 147.9L211 150L212.5 155L214 160L215 162.1L216.6 165L220 167.7L222.6 170L225 171.4L229 175L230 175.8L233.6 180L235 181.7L237.3 185L240 189L240.6 190L243.4 195L245 199.3L245.2 200"/><path d="M304 0L301.7 5L300.6 10L300 14.2L299.9 15L299.5 20L299.3 25L299.4 30L299.9 35L300 35.8L300.7 40L301.9 45L303.2 50L304.8 55L305 55.7L307.1 60L310 64.2L311.4 65L315 66.1L320 65.3L320.6 65L325 61.9L327.3 60L330 57.2L331.8 55L335 50.6L335.4 50L337.8 45L339.2 40L340 36.6L340.3 35L341.3 30L342.6 25L344.4 20L345 18.6L346.6 15L348.8 10L350 7.2L351.4 5L355 0.9L356.7 0M0 104.2L0.9 105L5 108.4L7.1 110L10 111.9L15 113.8L20 114.7L25 115L25.1 115L30 115.1L35 115.6L40 116.6L45 118.5L47.5 120L50 121.9L52.9 125L55 128.4L55.9 130L57.6 135L58.6 140L59 145L59.3 150L59.7 155L60 158.3L60.2 160L61 165L62 170L63 175L63.9 180L64.5 185L64.9 190L65 190.7L66.1 195L70 199.8L70.3 200M441.1 110L445 107.5L450 106.3L455 105.9L460 107.9L462.1 110L465 113L466.3 115L469.7 120L470 120.4L472.9 125L475 128.2L476.2 130L479.2 135L480 136.8L481.4 140L482.7 145L483.3 150L483.1 155L481.8 160L480 164.6L479.9 165L477.6 170L475.6 175L475 176.6L473.6 180L471.6 185L470 188.3L468.8 190L465.1 195L465 195.1L460 197.5L455 196.2L453.5 195L450 192.3L447.8 190L445 186.9L443.9 185L441.4 180L440 177.1L439.3 175L437.7 170L436 165L435 161.3L434.7 160L433.9 155L433.5 150L433.7 145L434 140L434.3 135L434.5 130L434.8 125L435 123.8L435.7 120L437.5 115L440 111L441.1 110M164.4 145L165 144.6L168.9 145L170 145.2L174.2 150L173.7 155L170 157.4L165 156.9L162.2 155L160.3 150L164.4 145M106.6 200L108.5 195L110 194.8L115 194.6L116.5 195L118.9 200M165.4 200L170 197.6L175 195.9L180 195.1L185 195.1L190 195.7L195 196.8L200 198.2L205 198.6L210 197.6L214.9 195L215 195L220 192L225 191.7L229.3 195L230 195.9L231.5 200"/><path d="M313.8 5L315 4.1L320 2L325 0.8L330 0.4L335 2.1L337.4 5L337.9 10L336.5 15L335 18.7L334.3 20L331.7 25L330 28.6L328.8 30L325.2 35L325 35.3L320.4 40L320 40.4L315 41.2L314.2 40L311.7 35L310 30L309.5 25L309.3 20L309.3 15L310 10.6L310.1 10L313.8 5M310 30L310 30M0 113.5L2.2 115L5 116.6L10 118.3L15 119.1L20 119.5L25 119.7L30 119.8L31.7 120L35 120.4L40 121.8L45 124.6L45.5 125L49.7 130L50 130.6L51.9 135L52.9 140L53.2 145L53.4 150L53.5 155L53.4 160L53.2 165L52.5 170L51.4 175L50 178.7L49.2 180L45 184.9L44.8 185L40 187.6L35 188.6L30 188.9L25 188.8L20 188.8L15 189L10 189.6L7.2 190L5 190.4L0 190.8M453.4 130L455 127.8L460 127.8L462 130L465 133.1L466.1 135L468.8 140L470 142.8L470.6 145L471.5 150L471.3 155L470.1 160L470 160.3L467.5 165L465 169.2L464 170L460 173.1L455 171.4L453.8 170L450.2 165L450 164.6L448.1 160L447 155L446.9 150L447.7 145L449.2 140L450 137.3L451 135L453.4 130"/><path d="M9.9 125L10 125L15 124.5L20 124.4L25 124.4L30 124.5L33.1 125L35 125.4L40 127.6L42.9 130L45 132.9L46.1 135L47.4 140L47.8 145L47.9 150L47.7 155L46.8 160L45.1 165L45 165.1L40.9 170L40 170.8L35 172.9L30 173.6L25 173.6L20 173.5L15 173L10 171.7L7 170L5 168.3L2.9 165L1.4 160L0.8 155L0.7 150L0.8 145L1 140L1.3 135L2.5 130L5 127L9.9 125"/><path d="M20 130L20 130L25 129.9L28.6 130L30 130.1L35 131.7L39.1 135L40 136.6L41.2 140L41.7 145L41.7 150L40.9 155L40 157.4L38.2 160L35 162.7L30 164.2L25 164.3L20 164L15 162.4L11.9 160L10 157.4L9 155L8.2 150L8.1 145L8.5 140L10 135.1L10 135L15 131.3L20 130"/></svg>
